<svg height="100" viewBox="0 0 100 100" width="100" xmlns="http://www.w3.org/2000/svg"><g fill="#1d1f20" fill-rule="evenodd"><path d="m50.0004412 0c-27.6133165 0-50.0004412 22.3848726-50.0004412 49.9995588 0 27.6138038 22.3871247 50.0004412 50.0004412 50.0004412s49.9995588-22.3866374 49.9995588-50.0004412c0-27.6146862-22.3871247-49.9995588-49.9995588-49.9995588z" fill-rule="evenodd" height="100%" width="100%"/><path d="m50.000441.5c-27.33782 0-49.500441 22.161661-49.500441 49.499559 0 27.337492 22.163098 49.500441 49.500441 49.500441 27.337172 0 49.499559-22.162778 49.499559-49.500441 0-27.337763-22.162486-49.499559-49.499559-49.499559z"/></g><g transform="matrix(.16657507 0 0 .16657507 6.509324 9.356782)"><path d="m345.169 152.449c0-31.721-25.807-57.528-57.528-57.528s-57.528 25.807-57.528 57.528h34.517c0-12.688 10.323-23.011 23.011-23.011s23.011 10.323 23.011 23.011-10.323 23.011-23.011 23.011h-241.619v34.517h241.618c31.721.001 57.529-25.807 57.529-57.528z" fill="#e8f4fc"/><path d="m431.461 106.427c-34.893 0-63.281 28.388-63.281 63.281 0 25.377 20.646 46.022 46.022 46.022 25.377 0 46.022-20.646 46.022-46.022h-34.517c0 6.344-5.161 11.506-11.506 11.506s-11.506-5.161-11.506-11.506c0-15.861 12.904-28.764 28.764-28.764 25.377 0 46.022 20.646 46.022 46.022s-20.646 46.022-46.022 46.022h-431.459v34.517h431.461c44.411 0 80.539-36.13 80.539-80.539s-36.129-80.539-80.539-80.539z" fill="#d1e5f5"/><path d="m345.169 290.517h-299.147v34.517h299.146c15.861 0 28.764 12.904 28.764 28.764s-12.904 28.764-28.764 28.764-28.764-12.904-28.764-28.764h-34.517c0 34.893 28.388 63.281 63.281 63.281s63.281-28.388 63.281-63.281-28.387-63.281-63.28-63.281z" fill="#b4d8f1"/></g></svg>